<?xml version="1.0" encoding="utf-8"?>
<!-- Generator: Adobe Illustrator 25.0.0, SVG Export Plug-In . SVG Version: 6.00 Build 0)  -->
<svg version="1.1" id="Calque_1" xmlns="http://www.w3.org/2000/svg" xmlns:xlink="http://www.w3.org/1999/xlink" x="0px" y="0px"
	 viewBox="0 0 268.5 84.2" style="enable-background:new 0 0 268.5 84.2;" xml:space="preserve">
<style type="text/css">
	.st0{fill:#FFFFFF;}
	.st1{fill:#FFFFFF;stroke:#FFFFFF;stroke-width:0.25;stroke-miterlimit:10;}
	.st2{fill:none;}
	.st3{enable-background:new    ;}
	.st4{fill:#55519E;}
	.st5{fill:#D7993D;}
</style>
<path class="st0" d="M12.9,58l-3.8,5c-0.4,0.5-0.5,1.2-0.2,1.9l5.3,12.2c0.3,0.6,0.9,1.1,1.6,1.1l5.9,0.4c0,0,2.7,3.7,3.4,3.8
	s4.3-1.7,4.3-1.7s0.3-1.3,0-2s1.5,0.2,3.9-1.3c2.4-1.5,1.3-3.5,1.3-3.5L24.1,50.1c0,0-1.6-1.3-3.2-1.1c-1.6,0.3-3.8,3-3.8,3
	l-2.7-2.3c0,0-0.4,0.1-0.4,0c-0.1-0.1-0.7-1.2-1.1-1.8c-0.1-0.2-0.6-0.2-0.9,0c-0.2,0.1-0.4,0.3-0.4,0.6c0.2,0.8,0.6,2,0.6,2
	l-0.1,2.9l0.1,0.3L12.9,58z"/>
<path class="st0" d="M72,58l3.8,5c0.4,0.5,0.5,1.3,0.2,1.9l-5.3,12.2c-0.3,0.6-0.9,1.1-1.6,1.1l-6,0.4c0,0-2.7,3.7-3.4,3.8
	s-4.3-1.7-4.3-1.7s-0.3-1.3,0-2c0.3-0.6-1.5,0.2-3.9-1.3s-1.3-3.5-1.3-3.5l10.7-23.8c0,0,1.6-1.3,3.2-1.1c1.6,0.3,3.8,3,3.8,3
	l2.7-2.3c0,0,0.3,0.1,0.4,0c0.1-0.1,0.7-1.2,1.1-1.8c0.1-0.2,0.6-0.2,0.9,0c0.2,0.1,0.4,0.3,0.4,0.6c-0.2,0.8-0.6,2-0.6,2l0.1,2.9
	l-0.1,0.3L72,58z"/>
<path class="st1" d="M12.1,53.3c0,0-3.6-2.8-5.3-4.7c-0.6-0.6-0.7-1.3-0.6-1.8c0.5-2.4,1.8-2,1.6-7.5c0-0.8,1.9-0.6,1.8-2.2
	S9,29.6,10.3,25.3C15.9,7.3,33.9,7,42.5,7s26.6,0.3,32.2,18.4c1.3,4.3,0.9,10.3,0.8,11.9s1.8,1.4,1.8,2.2c-0.1,5.4,1.2,5.1,1.6,7.5
	c0.1,0.5-0.1,1.2-0.6,1.8c-1.7,1.8-5.3,4.7-5.3,4.7l-0.1,0.3l-0.6,3.3c0,0,7.2-5.5,8.5-8.3c0.3-0.7,0.2-1.4,0.1-1.6
	c-0.4-1.8-1.5-3.4-1.3-8.7c0.2-6,0.8-14.8-4.4-22.1C64.8,2,46.5,3,42.5,3S20.1,2,9.9,16.1c-5.3,7.3-4.7,16.1-4.4,22.1
	c0.2,5.3-0.9,6.9-1.3,8.7c-0.1,0.2-0.2,1,0.1,1.6c1.4,2.8,8.5,8.3,8.5,8.3l-0.6-3.3L12.1,53.3z"/>
<g>
	<rect x="85" y="-2.2" class="st2" width="196.2" height="96.4"/>
</g>
<g class="st3">
	<path class="st0" d="M87.4,81.5c-0.2,0-0.3-0.1-0.3-0.3l0.1-36.7c0-0.1,0.1-0.2,0.2-0.2h6c0.1,0,0.2,0.1,0.2,0.2l0.1,36.7
		c0,0.2-0.1,0.3-0.2,0.3H87.4z"/>
	<path class="st0" d="M107.4,82c-1.9,0-3.7-0.5-5.3-1.5c-1.6-1-2.9-2.3-3.8-3.9c-0.9-1.6-1.4-3.4-1.4-5.4v-2.5
		c0-0.2,0.1-0.3,0.3-0.3h6c0.1,0,0.2,0.1,0.2,0.3v2.5c0,1.2,0.4,2.2,1.2,3c0.8,0.8,1.7,1.3,2.8,1.3c1.1,0,2-0.4,2.8-1.3
		c0.8-0.9,1.2-1.9,1.2-3c0-1.3-0.9-2.5-2.6-3.4c-0.6-0.3-1.5-0.8-2.7-1.5c-1.2-0.7-2.4-1.3-3.4-1.9c-2-1.1-3.4-2.6-4.4-4.3
		c-0.9-1.7-1.4-3.7-1.4-5.9c0-2,0.5-3.8,1.4-5.4c1-1.6,2.2-2.8,3.8-3.8c1.6-0.9,3.3-1.4,5.2-1.4c1.9,0,3.6,0.5,5.2,1.4
		c1.6,0.9,2.8,2.2,3.8,3.8c0.9,1.6,1.4,3.4,1.4,5.3v4.4c0,0.1-0.1,0.2-0.2,0.2h-6c-0.1,0-0.2-0.1-0.2-0.2l-0.1-4.4
		c0-1.2-0.4-2.3-1.2-3c-0.8-0.8-1.7-1.2-2.8-1.2c-1.1,0-2,0.4-2.8,1.3c-0.8,0.8-1.2,1.8-1.2,3c0,1.2,0.2,2.2,0.7,2.9
		c0.5,0.8,1.4,1.5,2.7,2.2c0.2,0.1,0.5,0.3,1,0.6c0.5,0.3,1.1,0.6,1.7,0.9c0.6,0.3,1.1,0.6,1.6,0.9c0.5,0.2,0.8,0.4,0.9,0.5
		c1.8,1,3.2,2.2,4.2,3.7c1,1.4,1.5,3.2,1.5,5.3c0,2-0.5,3.9-1.4,5.5c-0.9,1.6-2.2,2.9-3.8,3.8C111.1,81.6,109.3,82,107.4,82z"/>
	<path class="st0" d="M134.9,81.5c-0.1,0-0.2-0.1-0.2-0.3V50.8h-6.9c-0.2,0-0.3-0.1-0.3-0.3l0.1-6c0-0.1,0.1-0.2,0.2-0.2H148
		c0.2,0,0.3,0.1,0.3,0.2v6c0,0.2-0.1,0.3-0.2,0.3h-7l0.1,30.5c0,0.2-0.1,0.3-0.2,0.3H134.9z"/>
	<path class="st0" d="M151.1,81.5c-0.1,0-0.2-0.1-0.2-0.3l0.1-36.7c0-0.1,0.1-0.2,0.3-0.2h5.9c0.2,0,0.3,0.1,0.3,0.2L157.4,59h8
		V44.5c0-0.1,0.1-0.2,0.2-0.2h5.9c0.2,0,0.3,0.1,0.3,0.2l0.1,36.7c0,0.2-0.1,0.3-0.3,0.3h-6c-0.2,0-0.3-0.1-0.3-0.3V65.5h-8v15.7
		c0,0.2-0.1,0.3-0.2,0.3H151.1z"/>
	<path class="st0" d="M176.5,81.5c-0.1,0-0.2-0.1-0.2-0.3l0.1-36.7c0-0.1,0.1-0.2,0.2-0.2h17.2c0.1,0,0.2,0.1,0.2,0.3v6
		c0,0.1-0.1,0.2-0.2,0.2h-11v8.3h11c0.1,0,0.2,0.1,0.2,0.2l0.1,6c0,0.1-0.1,0.2-0.2,0.2h-11v9.4h11c0.1,0,0.2,0.1,0.2,0.3v6.1
		c0,0.1-0.1,0.2-0.2,0.2H176.5z"/>
</g>
<g class="st3">
	<path class="st4" d="M202.1,81.5c-0.2,0-0.3-0.1-0.3-0.3l0.1-36.7c0-0.1,0.1-0.2,0.2-0.2l10-0.1c2,0,3.7,0.4,5.4,1.4
		s2.9,2.3,3.9,3.9c1,1.6,1.4,3.4,1.4,5.4v15.3c0,2.1-0.5,3.9-1.5,5.6c-1,1.7-2.3,3-4,4c-1.7,1-3.6,1.5-5.7,1.5L202.1,81.5z
		 M208.3,74.9h3.3c1.3,0,2.4-0.5,3.3-1.4c0.9-0.9,1.4-2,1.4-3.3V54.8c0-1.1-0.4-2.1-1.3-3c-0.8-0.8-1.8-1.2-3-1.2l-3.7,0.1
		L208.3,74.9z"/>
	<path class="st4" d="M235.8,82c-2,0-3.8-0.5-5.4-1.4c-1.6-0.9-2.8-2.2-3.7-3.9c-0.9-1.7-1.4-3.5-1.4-5.6v-2.5
		c0-0.1,0.1-0.2,0.2-0.2h6c0.1,0,0.2,0.1,0.2,0.3v2.4c0,1.3,0.4,2.4,1.1,3.2c0.7,0.8,1.7,1.2,2.9,1.2c1.1,0,2-0.4,2.8-1.3
		c0.8-0.9,1.2-1.9,1.2-3.1V44.6c0-0.1,0.1-0.2,0.2-0.2h6c0.1,0,0.2,0.1,0.2,0.3l0.1,26.5c0,2-0.5,3.8-1.4,5.4c-0.9,1.7-2.2,3-3.8,4
		C239.5,81.5,237.7,82,235.8,82z"/>
</g>
<g class="st3">
	<path class="st5" d="M87.3,43.3c-0.1,0-0.2-0.1-0.2-0.3l0.1-36.7c0-0.1,0.1-0.2,0.2-0.2h17.2c0.1,0,0.2,0.1,0.2,0.3v6
		c0,0.1-0.1,0.2-0.2,0.2h-11v8.3h11c0.1,0,0.2,0.1,0.2,0.2l0.1,6c0,0.1-0.1,0.2-0.2,0.2h-11v9.4h11c0.1,0,0.2,0.1,0.2,0.3v6.1
		c0,0.1-0.1,0.2-0.2,0.2H87.3z"/>
</g>
<g class="st3">
	<path class="st0" d="M115.5,43.3c-0.1,0-0.2-0.1-0.3-0.3l-7.4-36.7c0-0.1,0-0.2,0.2-0.2h6c0.1,0,0.2,0.1,0.3,0.2l4.4,24.5L123,6.3
		c0-0.1,0.1-0.2,0.3-0.2h6c0.2,0,0.2,0.1,0.2,0.2L122.2,43c0,0.2-0.1,0.3-0.3,0.3H115.5z"/>
	<path class="st0" d="M132.9,43.3c-0.1,0-0.2-0.1-0.2-0.3l0.1-36.7c0-0.1,0.1-0.2,0.2-0.2h17.2c0.1,0,0.2,0.1,0.2,0.3v6
		c0,0.1-0.1,0.2-0.2,0.2h-11v8.3h11c0.1,0,0.2,0.1,0.2,0.2l0.1,6c0,0.1-0.1,0.2-0.2,0.2h-11v9.4h11c0.1,0,0.2,0.1,0.2,0.3v6.1
		c0,0.1-0.1,0.2-0.2,0.2H132.9z"/>
	<path class="st0" d="M155.3,43.3c-0.1,0-0.2-0.1-0.2-0.3l0.1-36.7c0-0.1,0.1-0.2,0.2-0.2h10.8c1.9,0,3.7,0.5,5.3,1.4
		c1.6,0.9,2.9,2.2,3.9,3.8c1,1.6,1.4,3.4,1.4,5.4c0,1.3-0.2,2.5-0.6,3.6c-0.4,1.1-0.9,1.9-1.4,2.7c-0.5,0.7-1,1.3-1.4,1.6
		c1.9,2.1,2.9,4.6,2.9,7.5l0.1,11c0,0.2-0.1,0.3-0.3,0.3h-6c-0.1,0-0.2-0.1-0.2-0.2V32.1c0-1.3-0.5-2.4-1.4-3.3
		c-0.9-0.9-2-1.4-3.3-1.4h-3.5L161.6,43c0,0.2-0.1,0.3-0.2,0.3H155.3z M161.6,20.9h4.6c1.1,0,2.1-0.4,2.9-1.2c0.9-0.8,1.3-1.8,1.3-3
		c0-1.1-0.4-2.1-1.3-2.9c-0.8-0.8-1.8-1.2-3-1.2h-4.6V20.9z"/>
	<path class="st0" d="M184.2,43.3c-0.1,0-0.2-0.1-0.2-0.2l0.1-15.2L177,6.3c0-0.1,0-0.2,0.2-0.2h5.9c0.2,0,0.3,0.1,0.3,0.2l4,14.4
		l4-14.4c0-0.1,0.1-0.2,0.3-0.2h6c0.1,0,0.2,0.1,0.2,0.2l-7.2,21.4l0.1,15.4c0,0.1-0.1,0.2-0.2,0.2H184.2z"/>
	<path class="st0" d="M209.9,43.8c-2.3,0-4.3-0.5-6-1.5c-1.7-1-3.1-2.3-4.1-3.9c-1-1.6-1.5-3.4-1.5-5.4l0.1-16.9
		c0-2,0.5-3.7,1.5-5.3c1-1.6,2.3-2.9,4.1-3.8c1.7-1,3.7-1.4,6-1.4c2.3,0,4.3,0.5,6,1.4s3.1,2.2,4,3.8c1,1.6,1.5,3.4,1.5,5.3
		l0.1,16.9c0,2-0.5,3.8-1.5,5.4c-1,1.6-2.3,2.9-4.1,3.9C214.2,43.3,212.2,43.8,209.9,43.8z M215,33.1l-0.1-16.9c0-1.2-0.5-2.3-1.4-3
		c-0.9-0.8-2.1-1.2-3.6-1.2c-1.5,0-2.8,0.4-3.7,1.2c-0.9,0.8-1.4,1.8-1.4,3v16.9c0,1.3,0.5,2.4,1.4,3.1c0.9,0.8,2.2,1.1,3.7,1.1
		c1.5,0,2.7-0.4,3.7-1.1C214.5,35.4,215,34.4,215,33.1z"/>
	<path class="st0" d="M226,43.3c-0.3,0-0.4-0.1-0.4-0.4l-0.1-36.4c0-0.3,0.1-0.4,0.4-0.4h4.8l9,21.1l-0.3-20.6
		c0-0.3,0.2-0.4,0.5-0.4h5.3c0.2,0,0.3,0.1,0.3,0.4l0.1,36.4c0,0.2-0.1,0.3-0.3,0.3h-4.7l-9.2-19.7l0.4,19.2c0,0.3-0.2,0.4-0.5,0.4
		H226z"/>
	<path class="st0" d="M250.5,43.3c-0.1,0-0.2-0.1-0.2-0.3l0.1-36.7c0-0.1,0.1-0.2,0.2-0.2h17.2c0.1,0,0.2,0.1,0.2,0.3v6
		c0,0.1-0.1,0.2-0.2,0.2h-11v8.3h11c0.1,0,0.2,0.1,0.2,0.2l0.1,6c0,0.1-0.1,0.2-0.2,0.2h-11v9.4h11c0.1,0,0.2,0.1,0.2,0.3v6.1
		c0,0.1-0.1,0.2-0.2,0.2H250.5z"/>
</g>
</svg>
